<svg width="24" height="24" viewBox="0 0 24 24" fill="none" xmlns="http://www.w3.org/2000/svg">
<circle cx="12" cy="12" r="11.5" fill="#292929" stroke="#44454B"/>
<path d="M16.5886 8.60839C15.755 7.96265 14.7967 7.5728 13.7937 7.27084C13.8802 7.12199 13.995 7.09293 14.1439 7.10285C15.2298 7.20018 16.2704 7.58422 17.1592 8.2157C17.2255 8.26259 17.2801 8.32422 17.3187 8.39574C18.1388 9.91619 18.6743 11.5737 18.8986 13.2866C18.9568 13.7474 18.9745 14.2138 19 14.6773C18.9967 14.7556 18.9649 14.8299 18.9107 14.8864C17.9765 15.8788 16.8069 16.3409 15.4658 16.4232C15.4061 16.4325 15.345 16.4251 15.2893 16.4017C15.2336 16.3783 15.1855 16.3398 15.1504 16.2906C14.9462 16.0262 14.7251 15.7732 14.5011 15.5003C15.3099 15.2501 16.0187 14.8964 16.5567 14.2669C13.5196 15.9681 10.4908 15.9681 7.4703 14.2669C7.52134 14.4221 7.90552 14.7723 8.35704 15.0112C8.71145 15.199 9.08854 15.3507 9.47768 15.5279C9.24448 15.8072 9.00206 16.1021 8.75185 16.3884C8.72279 16.4217 8.6434 16.4217 8.58882 16.4189C7.213 16.353 6.01934 15.8738 5.06527 14.8595C5.02172 14.8032 4.99871 14.7336 5.00006 14.6624C5.0238 13.3653 5.24219 12.0791 5.64792 10.8469C5.90538 10.0208 6.24099 9.22119 6.65019 8.45883C6.71153 8.34627 6.79786 8.24928 6.90253 8.1753C7.77688 7.56617 8.79541 7.19644 9.8569 7.10285C10.0072 7.08938 10.122 7.11845 10.2113 7.26943C9.20479 7.57138 8.24717 7.96265 7.41005 8.61264C10.4684 7.22193 13.5279 7.22052 16.5886 8.60839ZM14.1559 13.6878C14.3182 13.687 14.4788 13.654 14.6283 13.5907C14.7778 13.5275 14.9133 13.4352 15.027 13.3193C15.1406 13.2033 15.2301 13.066 15.2904 12.9153C15.3506 12.7645 15.3804 12.6033 15.3779 12.441C15.3779 11.7648 14.83 11.1956 14.1857 11.1991C13.8547 11.1982 13.5369 11.3284 13.3017 11.5613C13.0666 11.7942 12.9333 12.1108 12.9311 12.4417C12.9297 12.6039 12.9602 12.7649 13.021 12.9153C13.0818 13.0657 13.1717 13.2027 13.2854 13.3184C13.3991 13.4342 13.5346 13.5263 13.6839 13.5897C13.8333 13.6531 13.9937 13.6864 14.1559 13.6878ZM9.84769 13.6878C10.1724 13.6845 10.4827 13.5534 10.7116 13.323C10.9404 13.0926 11.0693 12.7813 11.0704 12.4566C11.0713 12.2912 11.0393 12.1273 10.9764 11.9744C10.9135 11.8214 10.8209 11.6825 10.704 11.5655C10.5871 11.4486 10.4481 11.356 10.2952 11.2931C10.1422 11.2302 9.97832 11.1983 9.81296 11.1991C9.17076 11.1991 8.62285 11.7662 8.62355 12.4431C8.62159 12.6054 8.65175 12.7665 8.71231 12.9171C8.77287 13.0677 8.86263 13.2048 8.97641 13.3206C9.0902 13.4364 9.22576 13.5285 9.37529 13.5916C9.52483 13.6548 9.68537 13.6877 9.84769 13.6885V13.6878Z" fill="white"/>
</svg>
