<svg width="24" height="24" viewBox="0 0 24 24" fill="none" xmlns="http://www.w3.org/2000/svg">
<circle cx="12" cy="12" r="11.5" fill="#292929" stroke="#44454B"/>
<path d="M16.767 9.63151C17.255 9.28501 17.6655 8.85251 18 8.35451V8.35401C17.5535 8.54951 17.0785 8.67951 16.5825 8.74251C17.0925 8.43801 17.482 7.95951 17.665 7.38301C17.1895 7.66651 16.6645 7.86651 16.105 7.97851C15.6535 7.49751 15.01 7.20001 14.308 7.20001C12.946 7.20001 11.8495 8.30551 11.8495 9.66051C11.8495 9.85551 11.866 10.043 11.9065 10.2215C9.8615 10.1215 8.0515 9.14151 6.8355 7.64801C6.6235 8.01651 6.4985 8.43801 6.4985 8.89151C6.4985 9.74351 6.937 10.4985 7.5915 10.936C7.196 10.9285 6.8085 10.8135 6.48 10.633V10.66C6.48 11.8555 7.3325 12.8485 8.451 13.0775C8.2505 13.1325 8.0325 13.1585 7.806 13.1585C7.6485 13.1585 7.4895 13.1495 7.3405 13.1165C7.659 14.0905 8.564 14.807 9.639 14.8305C8.802 15.485 7.739 15.8795 6.5885 15.8795C6.387 15.8795 6.1935 15.8705 6 15.846C7.09 16.5485 8.381 16.95 9.774 16.95C14.1155 16.95 16.945 13.328 16.767 9.63151Z" fill="white"/>
</svg>
