<svg width="24" height="24" viewBox="0 0 24 24" fill="none" xmlns="http://www.w3.org/2000/svg">
<circle cx="12" cy="12" r="11.5" fill="#292929" stroke="#44454B"/>
<g clip-path="url(#clip0_185_3986)">
<path d="M9.32485 13.6769C9.15884 12.4351 9.15845 11.2057 9.32485 9.96512C11.1047 9.96512 12.8838 9.96512 14.6734 9.96512C14.841 11.1999 14.8398 12.4328 14.6742 13.6769C12.8943 13.6769 11.1148 13.6769 9.32485 13.6769Z" fill="white"/>
<path d="M14.5091 9.01301C12.8272 9.01301 11.1632 9.01301 9.48633 9.01301C9.74215 7.92868 10.0738 6.88906 10.7802 6.01117C10.9703 5.77479 11.1919 5.57223 11.4629 5.42916C11.8369 5.23126 12.2075 5.24215 12.5741 5.44898C12.9298 5.6496 13.1942 5.94547 13.4217 6.27633C13.9376 7.02747 14.2327 7.87192 14.4492 8.74825C14.4698 8.83262 14.4877 8.91776 14.5091 9.01301Z" fill="white"/>
<path d="M9.48828 14.6287C11.1721 14.6287 12.8361 14.6287 14.5126 14.6287C14.2719 15.6652 13.9609 16.664 13.3058 17.5119C13.1165 17.7572 12.8758 17.9769 12.6215 18.1554C12.2055 18.447 11.7635 18.4147 11.3389 18.141C11.0232 17.9373 10.7794 17.6612 10.5703 17.3541C10.01 16.5295 9.71067 15.6014 9.48828 14.6287Z" fill="white"/>
<path d="M15.6172 13.6757C15.7715 12.4273 15.77 11.1976 15.618 9.96085C16.6634 9.96085 17.6964 9.96085 18.7582 9.96085C18.8165 10.2587 18.8892 10.56 18.9324 10.8656C19.0615 11.7804 19.0059 12.6859 18.773 13.5813C18.752 13.6625 18.7209 13.6897 18.6369 13.6897C17.6607 13.687 16.6844 13.6882 15.7082 13.6874C15.6802 13.6874 15.6522 13.6804 15.6172 13.6757Z" fill="white"/>
<path d="M8.38222 9.96593C8.22904 11.2046 8.22865 12.4347 8.38378 13.6878C8.33013 13.6878 8.28464 13.6878 8.23876 13.6878C7.29167 13.6878 6.34458 13.6863 5.39749 13.6898C5.29563 13.6901 5.24703 13.6695 5.21942 13.5587C4.92706 12.3955 4.92472 11.2342 5.22526 10.0725C5.24353 10.0013 5.25675 9.95155 5.35122 9.95194C6.34186 9.95544 7.33288 9.95427 8.32391 9.95505C8.3379 9.95466 8.3519 9.9601 8.38222 9.96593Z" fill="white"/>
<path d="M18.4058 9.01567C17.4182 9.01567 16.4525 9.01567 15.4743 9.01567C15.1454 7.54605 14.6913 6.13241 13.5859 5.03214C14.0673 4.99326 15.6559 5.76695 16.4521 6.43023C17.2977 7.13471 17.9462 7.98771 18.4058 9.01567Z" fill="white"/>
<path d="M8.52405 9.01571C7.55208 9.01571 6.58594 9.01571 5.59375 9.01571C5.98526 8.12733 6.52762 7.36413 7.22744 6.71252C8.13799 5.86419 9.19938 5.29811 10.4458 4.99991C9.3098 6.1274 8.85375 7.54065 8.52405 9.01571Z" fill="white"/>
<path d="M15.4749 14.6267C16.4551 14.6267 17.4204 14.6267 18.4056 14.6267C17.9799 15.5897 17.3784 16.4066 16.5962 17.0889C15.7218 17.8517 14.7183 18.3657 13.5547 18.6417C14.688 17.5154 15.1444 16.1041 15.4749 14.6267Z" fill="white"/>
<path d="M8.52581 14.6267C8.85589 16.1049 9.31155 17.5138 10.446 18.6401C9.34265 18.3797 8.38545 17.9042 7.54062 17.204C6.69344 16.5018 6.04689 15.6465 5.59473 14.6267C6.58108 14.6267 7.54723 14.6267 8.52581 14.6267Z" fill="white"/>
</g>
<defs>
<clipPath id="clip0_185_3986">
<rect width="14" height="14" fill="white" transform="translate(5 4.99991)"/>
</clipPath>
</defs>
</svg>
